<svg width="40" height="40" viewBox="0 0 40 40" fill="none" xmlns="http://www.w3.org/2000/svg">
<g clip-path="url(#clip0_1_1856)">
<g filter="url(#filter0_dd_1_1856)">
<rect width="40" height="40" rx="10" fill="white"/>
</g>
<g filter="url(#filter1_dd_1_1856)">
<path d="M11.9797 28L15.2197 12.76H21.6757C22.6677 12.76 23.5317 12.864 24.2677 13.072C25.0197 13.264 25.6357 13.592 26.1157 14.056C26.6117 14.52 26.9797 15.128 27.2197 15.88C27.4757 16.632 27.6037 17.552 27.6037 18.64C27.6037 19.808 27.4517 20.952 27.1477 22.072C26.8597 23.192 26.3717 24.192 25.6837 25.072C24.9957 25.952 24.0917 26.664 22.9717 27.208C21.8677 27.736 20.4997 28 18.8677 28H11.9797ZM18.5557 26.32C19.0837 26.32 19.5477 26.104 19.9477 25.672C20.3637 25.224 20.7157 24.664 21.0037 23.992C21.3077 23.304 21.5557 22.552 21.7477 21.736C21.9557 20.904 22.1157 20.104 22.2277 19.336C22.3557 18.568 22.4437 17.88 22.4917 17.272C22.5557 16.664 22.5877 16.232 22.5877 15.976C22.5877 15.48 22.4837 15.096 22.2757 14.824C22.0837 14.536 21.7397 14.392 21.2437 14.392H20.0917L17.5237 26.32H18.5557Z" fill="#367BF5"/>
</g>
</g>
<defs>
<filter id="filter0_dd_1_1856" x="-6" y="-4" width="52" height="52" filterUnits="userSpaceOnUse" color-interpolation-filters="sRGB">
<feFlood flood-opacity="0" result="BackgroundImageFix"/>
<feColorMatrix in="SourceAlpha" type="matrix" values="0 0 0 0 0 0 0 0 0 0 0 0 0 0 0 0 0 0 127 0" result="hardAlpha"/>
<feOffset dy="1"/>
<feGaussianBlur stdDeviation="1"/>
<feColorMatrix type="matrix" values="0 0 0 0 0.0295189 0 0 0 0 0.137798 0 0 0 0 0.187773 0 0 0 0.24 0"/>
<feBlend mode="multiply" in2="BackgroundImageFix" result="effect1_dropShadow_1_1856"/>
<feColorMatrix in="SourceAlpha" type="matrix" values="0 0 0 0 0 0 0 0 0 0 0 0 0 0 0 0 0 0 127 0" result="hardAlpha"/>
<feOffset dy="2"/>
<feGaussianBlur stdDeviation="3"/>
<feColorMatrix type="matrix" values="0 0 0 0 0.0295189 0 0 0 0 0.137798 0 0 0 0 0.187773 0 0 0 0.16 0"/>
<feBlend mode="multiply" in2="effect1_dropShadow_1_1856" result="effect2_dropShadow_1_1856"/>
<feBlend mode="normal" in="SourceGraphic" in2="effect2_dropShadow_1_1856" result="shape"/>
</filter>
<filter id="filter1_dd_1_1856" x="-12.0203" y="4.76" width="63.624" height="63.24" filterUnits="userSpaceOnUse" color-interpolation-filters="sRGB">
<feFlood flood-opacity="0" result="BackgroundImageFix"/>
<feColorMatrix in="SourceAlpha" type="matrix" values="0 0 0 0 0 0 0 0 0 0 0 0 0 0 0 0 0 0 127 0" result="hardAlpha"/>
<feOffset dy="6"/>
<feGaussianBlur stdDeviation="6"/>
<feColorMatrix type="matrix" values="0 0 0 0 0.211765 0 0 0 0 0.482353 0 0 0 0 0.960784 0 0 0 0.16 0"/>
<feBlend mode="multiply" in2="BackgroundImageFix" result="effect1_dropShadow_1_1856"/>
<feColorMatrix in="SourceAlpha" type="matrix" values="0 0 0 0 0 0 0 0 0 0 0 0 0 0 0 0 0 0 127 0" result="hardAlpha"/>
<feOffset dy="16"/>
<feGaussianBlur stdDeviation="12"/>
<feColorMatrix type="matrix" values="0 0 0 0 0.211765 0 0 0 0 0.482353 0 0 0 0 0.960784 0 0 0 0.16 0"/>
<feBlend mode="multiply" in2="effect1_dropShadow_1_1856" result="effect2_dropShadow_1_1856"/>
<feBlend mode="normal" in="SourceGraphic" in2="effect2_dropShadow_1_1856" result="shape"/>
</filter>
<clipPath id="clip0_1_1856">
<rect width="40" height="40" fill="white"/>
</clipPath>
</defs>
</svg>
