<svg width="24" height="24" viewBox="0 0 24 24" fill="none" xmlns="http://www.w3.org/2000/svg">
<path d="M15.4285 6.85715H8.57136V9.14286H15.4285V6.85715ZM15.9999 12C15.8484 12 15.703 11.9398 15.5959 11.8326C15.4887 11.7255 15.4285 11.5801 15.4285 11.4286C15.4285 11.277 15.4887 11.1317 15.5959 11.0245C15.703 10.9174 15.8484 10.8571 15.9999 10.8571C16.1515 10.8571 16.2968 10.9174 16.404 11.0245C16.5112 11.1317 16.5714 11.277 16.5714 11.4286C16.5714 11.5801 16.5112 11.7255 16.404 11.8326C16.2968 11.9398 16.1515 12 15.9999 12ZM14.2856 16H9.71422V13.1429H14.2856V16ZM15.9999 9.71429H7.99993C7.54527 9.71429 7.10924 9.8949 6.78775 10.2164C6.46626 10.5379 6.28564 10.9739 6.28564 11.4286V14.8571H8.57136V17.1429H15.4285V14.8571H17.7142V11.4286C17.7142 10.9739 17.5336 10.5379 17.2121 10.2164C16.8906 9.8949 16.4546 9.71429 15.9999 9.71429Z" fill="#78909C"/>
</svg>
