<svg xmlns="http://www.w3.org/2000/svg">
  <symbol id="chart-donut" viewBox="0 0 28 28">
    <path d="M15 4V7.03C18.39 7.52 21 10.42 21 13.95C21 14.85 20.82 15.7 20.5 16.49L23.12 18.02C23.68 16.78 24 15.4 24 13.95C24 8.77 20.05 4.5 15 4ZM14 20.95C12.1435 20.95 10.363 20.2125 9.05025 18.8997C7.7375 17.587 7 15.8065 7 13.95C7 10.42 9.61 7.52 13 7.03V4C7.94 4.5 4 8.76 4 13.95C4 16.6022 5.05357 19.1457 6.92893 21.0211C7.85752 21.9497 8.95991 22.6863 10.1732 23.1888C11.3864 23.6913 12.6868 23.95 14 23.95C17.3 23.95 20.23 22.34 22.05 19.86L19.45 18.33C18.17 19.95 16.21 20.95 14 20.95Z"/>
  </symbol>
  <symbol id="check-outline" viewBox="0 0 28 28">
    <path d="M21.78 4L26 8.22L10.44 23.8L2 15.35L6.22 11.13L10.44 15.35L21.78 4ZM21.78 6.8L10.44 18.16L6.22 13.99L4.81 15.35L10.44 20.97L23.19 8.22L21.78 6.8Z"/>
  </symbol>
  <symbol id="print" viewBox="0 0 28 28">
    <path d="M20 5H8V9H20V5ZM21 14C20.7348 14 20.4804 13.8946 20.2929 13.7071C20.1054 13.5196 20 13.2652 20 13C20 12.7348 20.1054 12.4804 20.2929 12.2929C20.4804 12.1054 20.7348 12 21 12C21.2652 12 21.5196 12.1054 21.7071 12.2929C21.8946 12.4804 22 12.7348 22 13C22 13.2652 21.8946 13.5196 21.7071 13.7071C21.5196 13.8946 21.2652 14 21 14ZM18 21H10V16H18V21ZM21 10H7C6.20435 10 5.44129 10.3161 4.87868 10.8787C4.31607 11.4413 4 12.2044 4 13V19H8V23H20V19H24V13C24 12.2044 23.6839 11.4413 23.1213 10.8787C22.5587 10.3161 21.7956 10 21 10Z"/>
  </symbol>
  <symbol id="sort-none" viewBox="0 0 16 48">
    <path d="M4.42001 26L7.59001 29.17L10.76 26L12.18 27.41L7.59001 32L3.01001 27.41L4.42001 26Z" fill="#C6CACC"/>
    <path d="M7.59 18.83L10.76 22L12.17 20.59L7.59 16L3 20.59L4.42 22L7.59 18.83Z" fill="#C6CACC"/>
  </symbol>
  <symbol id="sort-ascending" viewBox="0 0 16 48">
    <path d="M4.42001 26L7.59001 29.17L10.76 26L12.18 27.41L7.59001 32L3.01001 27.41L4.42001 26Z" fill="#069697"/>
    <path d="M7.59 18.83L10.76 22L12.17 20.59L7.59 16L3 20.59L4.42 22L7.59 18.83Z" fill="#C6CACC"/>
  </symbol>
  <symbol id="sort-descending" viewBox="0 0 16 48">
    <path d="M4.42001 26L7.59001 29.17L10.76 26L12.18 27.41L7.59001 32L3.01001 27.41L4.42001 26Z" fill="#C6CACC"/>
    <path d="M7.59 18.83L10.76 22L12.17 20.59L7.59 16L3 20.59L4.42 22L7.59 18.83Z" fill="#069697"/>
  </symbol>
</svg>
