<svg width="28" height="28" viewBox="0 0 28 28" fill="none" xmlns="http://www.w3.org/2000/svg">
<path d="M17.07 13.25L16.17 14.17C15.45 14.89 15 15.5 15 17H13V16.5C13 15.39 13.45 14.39 14.17 13.67L15.41 12.41C15.78 12.05 16 11.55 16 11C16 9.89 15.1 9 14 9C13.4696 9 12.9609 9.21071 12.5858 9.58579C12.2107 9.96086 12 10.4696 12 11H10C10 9.93913 10.4214 8.92172 11.1716 8.17157C11.9217 7.42143 12.9391 7 14 7C15.0609 7 16.0783 7.42143 16.8284 8.17157C17.5786 8.92172 18 9.93913 18 11C18 11.88 17.64 12.67 17.07 13.25ZM15 21H13V19H15V21ZM14 4C12.6868 4 11.3864 4.25866 10.1732 4.7612C8.95991 5.26375 7.85752 6.00035 6.92893 6.92893C5.05357 8.8043 4 11.3478 4 14C4 16.6522 5.05357 19.1957 6.92893 21.0711C7.85752 21.9997 8.95991 22.7362 10.1732 23.2388C11.3864 23.7413 12.6868 24 14 24C16.6522 24 19.1957 22.9464 21.0711 21.0711C22.9464 19.1957 24 16.6522 24 14C24 8.47 19.5 4 14 4Z" fill="#C6CACC"/>
</svg>
