<svg width="33" height="32" viewBox="0 0 33 32" fill="none" xmlns="http://www.w3.org/2000/svg">
<path d="M20.2836 16.8H17.0836V20H15.4836V16.8H12.2836V15.2H15.4836V12H17.0836V15.2H20.2836V16.8ZM16.2836 8C15.233 8 14.1927 8.20693 13.2221 8.60896C12.2515 9.011 11.3696 9.60028 10.6267 10.3431C9.12644 11.8434 8.28358 13.8783 8.28358 16C8.28358 18.1217 9.12644 20.1566 10.6267 21.6569C11.3696 22.3997 12.2515 22.989 13.2221 23.391C14.1927 23.7931 15.233 24 16.2836 24C18.4053 24 20.4401 23.1571 21.9404 21.6569C23.4407 20.1566 24.2836 18.1217 24.2836 16C24.2836 14.9494 24.0767 13.9091 23.6746 12.9385C23.2726 11.9679 22.6833 11.086 21.9404 10.3431C21.1976 9.60028 20.3157 9.011 19.3451 8.60896C18.3744 8.20693 17.3342 8 16.2836 8Z" fill="#367BF5"/>
</svg>
